<svg version="1.2" xmlns="http://www.w3.org/2000/svg" viewBox="0 0 24 24" width="24" height="24">
	<title>message-circle</title>
	<style>
		.s0 { fill: #000000;stroke: #000000;stroke-linecap: round;stroke-linejoin: round;stroke-width: 2 } 
	</style>
	<path class="s0" d="m21 11.5q0 0.5-0.1 1 0 0.5-0.1 1-0.1 0.4-0.3 0.9-0.2 0.5-0.4 0.9-0.5 1.1-1.3 1.9-0.8 0.9-1.8 1.5-1 0.7-2.2 1-1.1 0.3-2.3 0.3-0.5 0-1-0.1-0.5 0-1-0.1-0.4-0.1-0.9-0.3-0.5-0.2-0.9-0.4l-5.7 1.9 1.9-5.7q-0.2-0.4-0.4-0.9-0.2-0.5-0.3-0.9-0.1-0.5-0.1-1-0.1-0.5-0.1-1 0-1.2 0.3-2.3 0.3-1.2 1-2.2 0.6-1 1.5-1.8 0.8-0.8 1.9-1.3 0.4-0.2 0.9-0.4 0.5-0.2 0.9-0.3 0.5-0.1 1-0.1 0.5-0.1 1-0.1h0.5q1.6 0.1 3 0.7 1.4 0.7 2.5 1.8 1.1 1.1 1.8 2.5 0.6 1.4 0.7 3z"/>
</svg>