<svg version="1.2" xmlns="http://www.w3.org/2000/svg" viewBox="0 0 24 24" width="24" height="24">
	<title>user</title>
	<style>
		.s0 { fill: #000000;stroke: #000000;stroke-linecap: round;stroke-linejoin: round;stroke-width: 2 } 
	</style>
	<path class="s0" d="m20 21v-2q0-0.8-0.3-1.5-0.3-0.8-0.9-1.3-0.5-0.6-1.3-0.9-0.7-0.3-1.5-0.3h-8q-0.8 0-1.5 0.3-0.8 0.3-1.3 0.9-0.6 0.5-0.9 1.3-0.3 0.7-0.3 1.5v2"/>
	<path fill-rule="evenodd" class="s0" d="m12 11c-2.2 0-4-1.8-4-4 0-2.2 1.8-4 4-4 2.2 0 4 1.8 4 4 0 2.2-1.8 4-4 4z"/>
</svg>